<svg xmlns:xlink="http://www.w3.org/1999/xlink" xmlns="http://www.w3.org/2000/svg" viewBox="0 0 1920 1080">
    <defs>
        <style>
            .cls-1{isolation:isolate;}.cls-2{fill:#f7fbfc;}.cls-10,.cls-11,.cls-13,.cls-14,.cls-16,.cls-18,.cls-20,.cls-22,.cls-3,.cls-4,.cls-5,.cls-6,.cls-8{opacity:0.5;mix-blend-mode:multiply;}.cls-3{fill:url(#linear-gradient);}.cls-4{fill:url(#linear-gradient-2);}.cls-5{fill:url(#linear-gradient-3);}.cls-6{fill:url(#linear-gradient-4);}.cls-7{fill:url(#linear-gradient-5);}.cls-8{fill:url(#linear-gradient-6);}.cls-9{fill:#fff;}.cls-10{fill:url(#linear-gradient-7);}.cls-11{fill:url(#linear-gradient-8);}.cls-12{fill:url(#linear-gradient-9);}.cls-13{fill:url(#linear-gradient-10);}.cls-14{fill:url(#linear-gradient-11);}.cls-15{fill:url(#linear-gradient-12);}.cls-16{fill:url(#linear-gradient-13);}.cls-17{fill:url(#linear-gradient-14);}.cls-18{fill:url(#linear-gradient-15);}.cls-19{fill:url(#linear-gradient-16);}.cls-20{fill:url(#linear-gradient-17);}.cls-21{fill:url(#linear-gradient-18);}.cls-22{fill:url(#linear-gradient-19);}.cls-23{fill:url(#linear-gradient-20);}
        </style>
        <linearGradient id="linear-gradient" x1="956.86" y1="595.5" x2="912.44" y2="1380.3"
                        gradientUnits="userSpaceOnUse">
            <stop offset="0" stop-color="#fff" stop-opacity="0"/>
            <stop offset="1" stop-color="#59595b"/>
        </linearGradient>
        <linearGradient id="linear-gradient-2" x1="1130.58" y1="920.07" x2="832.59" y2="256.13"
                        xlink:href="#linear-gradient"/>
        <linearGradient id="linear-gradient-3" x1="1042.66" y1="635.06" x2="763.91" y2="314.5"
                        xlink:href="#linear-gradient"/>
        <linearGradient id="linear-gradient-4" x1="985.07" y1="717.45" x2="841.7" y2="-297.18"
                        xlink:href="#linear-gradient"/>
        <linearGradient id="linear-gradient-5" x1="1144.99" y1="725.79" x2="1021.34" y2="422.09"
                        gradientUnits="userSpaceOnUse">
            <stop offset="0" stop-color="#fff" stop-opacity="0"/>
            <stop offset="1" stop-color="#fff"/>
        </linearGradient>
        <linearGradient id="linear-gradient-6" x1="1288.83" y1="739.91" x2="1308.29" y2="915.06"
                        xlink:href="#linear-gradient"/>
        <linearGradient id="linear-gradient-7" x1="1376.17" y1="797.36" x2="1404.05" y2="997.61"
                        xlink:href="#linear-gradient"/>
        <linearGradient id="linear-gradient-8" x1="1210.81" y1="951.59" x2="1218.11" y2="1143.77"
                        xlink:href="#linear-gradient"/>
        <linearGradient id="linear-gradient-9" x1="497" y1="890.67" x2="1920" y2="890.67"
                        xlink:href="#linear-gradient-5"/>
        <linearGradient id="linear-gradient-10" x1="904.65" y1="495.72" x2="352.39" y2="53.91"
                        xlink:href="#linear-gradient"/>
        <linearGradient id="linear-gradient-11" x1="919.28" y1="382.37" x2="805.64" y2="-57.52"
                        xlink:href="#linear-gradient"/>
        <linearGradient id="linear-gradient-12" x1="1013.75" y1="609.62" x2="911.48" y2="366.73"
                        xlink:href="#linear-gradient-5"/>
        <linearGradient id="linear-gradient-13" x1="811.63" y1="557.16" x2="314.01" y2="59.54"
                        xlink:href="#linear-gradient"/>
        <linearGradient id="linear-gradient-14" x1="658.55" y1="301.13" x2="812.05" y2="547.15"
                        xlink:href="#linear-gradient-5"/>
        <linearGradient id="linear-gradient-15" x1="337.98" y1="427.9" x2="172.39" y2="228.23"
                        xlink:href="#linear-gradient"/>
        <linearGradient id="linear-gradient-16" x1="256.84" y1="397.38" x2="394.61" y2="509.16"
                        xlink:href="#linear-gradient-5"/>
        <linearGradient id="linear-gradient-17" x1="358.44" y1="432.57" x2="-95.66" y2="168.76"
                        xlink:href="#linear-gradient"/>
        <linearGradient id="linear-gradient-18" x1="121.2" y1="275.86" x2="452.63" y2="489.15"
                        xlink:href="#linear-gradient-5"/>
        <linearGradient id="linear-gradient-19" x1="234.48" y1="106.13" x2="10.14" y2="-113.29"
                        xlink:href="#linear-gradient"/>
        <linearGradient id="linear-gradient-20" x1="291.34" y1="69.43" x2="298.21" y2="111.79"
                        xlink:href="#linear-gradient-5"/>
    </defs>
    <title>CreamBackground</title>
    <g class="cls-1">
        <g id="Background">
            <rect class="cls-2" width="1920" height="1080"/>
            <rect class="cls-3" width="1920" height="1080"/>
            <rect class="cls-4" width="1920" height="1080"/>
            <path class="cls-2"
                  d="M1920,0V379.75c-92.85,53.72-214.09,77.95-328.86,84.67-166.68,9.74-337.2-7.41-499,27.69C889.81,536,720.85,659.23,605.82,806.35,533,899.42,475.65,1006,379.42,1080H0V0Z"/>
            <path class="cls-5"
                  d="M1920,0V379.75c-92.85,53.72-214.09,77.95-328.86,84.67-166.68,9.74-337.2-7.41-499,27.69C889.81,536,720.85,659.23,605.82,806.35,533,899.42,475.65,1006,379.42,1080H0V0Z"/>
            <path class="cls-6"
                  d="M1920,0V379.75c-92.85,53.72-214.09,77.95-328.86,84.67-166.68,9.74-337.2-7.41-499,27.69C889.81,536,720.85,659.23,605.82,806.35,533,899.42,475.65,1006,379.42,1080H0V0Z"/>
            <path class="cls-7"
                  d="M1920,373.74v6c-92.85,53.72-214.09,77.95-328.86,84.67-166.68,9.74-337.2-7.41-499,27.69C889.81,536,720.85,659.23,605.82,806.35,533,899.42,475.65,1006,379.42,1080h-8.55c99.79-74.2,158-183.15,232.27-278.08,115-147.14,284-270.37,486.29-314.24,161.82-35.1,332.34-17.94,499-27.69C1704.32,453.21,1826.82,428.57,1920,373.74Z"/>
            <path class="cls-2"
                  d="M1920,616v464H681.68c5.53-77.87,22.81-158.59,82.33-217.71a254.2,254.2,0,0,1,46-36c1.82-1.15,3.64-2.25,5.48-3.31C900.4,773.15,1017,762.76,1123,770.49q16.66,1.2,33.3,2.85c4.77.46,9.53,1,14.29,1.45,113.46,12,226.43,34.32,340,25.08,4.76-.39,9.5-.82,14.23-1.34s9.22-1,13.83-1.62C1684.89,778.14,1818.09,707.51,1920,616Z"/>
            <path class="cls-8"
                  d="M1920,616v464H681.68c5.53-77.87,22.81-158.59,82.33-217.71a254.2,254.2,0,0,1,46-36c1.82-1.15,3.64-2.25,5.48-3.31C900.4,773.15,1017,762.76,1123,770.49q16.66,1.2,33.3,2.85c4.77.46,9.53,1,14.29,1.45,113.46,12,226.43,34.32,340,25.08,4.76-.39,9.5-.82,14.23-1.34s9.22-1,13.83-1.62C1684.89,778.14,1818.09,707.51,1920,616Z"/>
            <path class="cls-9"
                  d="M1920,616v3.52c-98.87,88.58-227,157.51-368,178.59-4.32.67-8.62,1.27-13,1.81-9.26,1.19-18.56,2.19-27.92,2.94-118.33,9.66-236-15-354.28-26.5-4.46-.45-8.91-.87-13.39-1.25q-9.95-.92-19.89-1.62C1019.83,766,906,775.72,821.61,822.81c-1.92,1.06-3.82,2.16-5.71,3.26a257,257,0,0,0-51.36,39.23c-58.75,58.38-76.31,137.76-82.07,214.7h-.79c5.53-77.87,22.81-158.59,82.33-217.71a254.2,254.2,0,0,1,46-36c1.82-1.15,3.64-2.25,5.48-3.31C900.4,773.15,1017,762.76,1123,770.49q16.66,1.2,33.3,2.85c4.77.46,9.53,1,14.29,1.45,113.46,12,226.43,34.32,340,25.08,4.76-.39,9.5-.82,14.23-1.34s9.22-1,13.83-1.62C1684.89,778.14,1818.09,707.51,1920,616Z"/>
            <path class="cls-2"
                  d="M1920,737.38V1080H863.33c5.53-77.87,22.79-158.59,82.31-217.71a248,248,0,0,1,27.08-23.22c1.1-.8,2.21-1.62,3.33-2.42,46.49-33.28,105.12-52.38,167.35-61.53,4.27-.65,8.55-1.24,12.87-1.78,49-6.13,99.74-6.39,148.33-2.85,78.18,5.68,156.06,19,234,26.42,4.45.43,8.93.84,13.38,1.21,46.67,4,93.39,5.57,140.19,1.75a630.92,630.92,0,0,0,125.93-23.52c2.56-.76,5.12-1.51,7.65-2.29A693.08,693.08,0,0,0,1920,737.38Z"/>
            <path class="cls-10"
                  d="M1920,737.38V1080H863.33c5.53-77.87,22.79-158.59,82.31-217.71a248,248,0,0,1,27.08-23.22c1.1-.8,2.21-1.62,3.33-2.42,46.49-33.28,105.12-52.38,167.35-61.53,4.27-.65,8.55-1.24,12.87-1.78,49-6.13,99.74-6.39,148.33-2.85,78.18,5.68,156.06,19,234,26.42,4.45.43,8.93.84,13.38,1.21,46.67,4,93.39,5.57,140.19,1.75a630.92,630.92,0,0,0,125.93-23.52c2.56-.76,5.12-1.51,7.65-2.29A693.08,693.08,0,0,0,1920,737.38Z"/>
            <path class="cls-9"
                  d="M1920,737.38v3.28a691.64,691.64,0,0,1-102.17,38.93q-3.76,1.1-7.53,2.14a627.64,627.64,0,0,1-117.6,21.14c-51.31,4.19-102.51,1.92-153.71-2.94q-7.1-.64-14.23-1.4c-73.11-7.56-146.23-19.68-219.62-25-44-3.2-89.91-3.29-134.58,1.29-4.61.48-9.19,1-13.77,1.58-65.54,8.19-127.75,26.89-176.95,61-1.13.78-2.28,1.58-3.38,2.4a245.48,245.48,0,0,0-30.28,25.51c-58.73,58.38-76.32,137.76-82.08,214.7h-.77c5.53-77.87,22.79-158.59,82.31-217.71a248,248,0,0,1,27.08-23.22c1.1-.8,2.21-1.62,3.33-2.42,46.49-33.28,105.12-52.38,167.35-61.53,4.27-.65,8.55-1.24,12.87-1.78,49-6.13,99.74-6.39,148.33-2.85,78.18,5.68,156.06,19,234,26.42,4.45.43,8.93.84,13.38,1.21,46.67,4,93.39,5.57,140.19,1.75a630.92,630.92,0,0,0,125.93-23.52c2.56-.76,5.12-1.51,7.65-2.29A693.08,693.08,0,0,0,1920,737.38Z"/>
            <path class="cls-2"
                  d="M1920,701.33V1080H497c19.56-73.48,51.25-147.25,118.07-196.24,55.42-40.65,126.38-58,200.39-60.74l6.15-.21c51.56-1.34,104.42,4.25,154.44,13.84,1.26.24,2.54.48,3.79.74l6.48,1.29c126.36,25.8,248.09,72.3,377.88,78.35,161.41,7.49,320.15-49.75,446.1-135.3.72-.48,1.41-1,2.13-1.45,1.89-1.3,3.79-2.59,5.66-3.93C1852.62,752.37,1885.85,726.15,1920,701.33Z"/>
            <path class="cls-11"
                  d="M1920,701.33V1080H497c19.56-73.48,51.25-147.25,118.07-196.24,55.42-40.65,126.38-58,200.39-60.74l6.15-.21c51.56-1.34,104.42,4.25,154.44,13.84,1.26.24,2.54.48,3.79.74l6.48,1.29c126.36,25.8,248.09,72.3,377.88,78.35,161.41,7.49,320.15-49.75,446.1-135.3.72-.48,1.41-1,2.13-1.45,1.89-1.3,3.79-2.59,5.66-3.93C1852.62,752.37,1885.85,726.15,1920,701.33Z"/>
            <path class="cls-12"
                  d="M1920,701.33v3c-31.62,23-62.44,47.19-94.26,69.68q-3.91,2.79-7.91,5.53c-1.79,1.25-3.58,2.5-5.4,3.73-126.29,86.36-285.93,144.29-448.23,136.75-129.79-6-251.52-52.53-377.88-78.34-3.28-.67-6.56-1.32-9.86-1.94-1.25-.26-2.48-.5-3.74-.72-50.89-9.57-104.62-14.92-156.82-13-2,.07-3.95.15-5.92.26-72,3.37-140.87,20.84-194.91,60.48-65.87,48.32-97.62,120.7-117.25,193.19H497c19.56-73.48,51.25-147.25,118.07-196.24,55.42-40.65,126.38-58,200.39-60.74l6.15-.21c51.56-1.34,104.42,4.25,154.44,13.84,1.26.24,2.54.48,3.79.74l6.48,1.29c126.36,25.8,248.09,72.3,377.88,78.35,161.41,7.49,320.15-49.75,446.1-135.3.72-.48,1.41-1,2.13-1.45,1.89-1.3,3.79-2.59,5.66-3.93C1852.62,752.37,1885.85,726.15,1920,701.33Z"/>
            <path class="cls-2"
                  d="M1920,0V143.53a288.35,288.35,0,0,1-42.85,87.57c-87.33,120.2-267.73,166.75-434.41,176.32s-337.2-7.73-499,27.19C741.33,478.29,572.16,601.37,457,748.38c-83.1,106-146.25,229.52-269.65,302.42a378.15,378.15,0,0,1-61.82,29.2H0V0Z"/>
            <path class="cls-13"
                  d="M1920,0V143.53a288.35,288.35,0,0,1-42.85,87.57c-87.33,120.2-267.73,166.75-434.41,176.32s-337.2-7.73-499,27.19C741.33,478.29,572.16,601.37,457,748.38c-83.1,106-146.25,229.52-269.65,302.42a378.15,378.15,0,0,1-61.82,29.2H0V0Z"/>
            <path class="cls-14"
                  d="M1920,0V143.53a288.35,288.35,0,0,1-42.85,87.57c-87.33,120.2-267.73,166.75-434.41,176.32s-337.2-7.73-499,27.19C741.33,478.29,572.16,601.37,457,748.38c-83.1,106-146.25,229.52-269.65,302.42a378.15,378.15,0,0,1-61.82,29.2H0V0Z"/>
            <path class="cls-15"
                  d="M1920,136.86v6.67a288.35,288.35,0,0,1-42.85,87.57c-87.33,120.2-267.73,166.75-434.41,176.32s-337.2-7.73-499,27.19C741.33,478.29,572.16,601.37,457,748.38c-83.1,106-146.25,229.52-269.65,302.42a378.15,378.15,0,0,1-61.82,29.2h-19a390.33,390.33,0,0,0,80.79-35.7c123.39-72.9,186.55-196.41,269.62-302.43,115.22-147,284.36-270.08,486.73-313.76,161.87-34.93,332.37-17.62,499.05-27.19s347.11-56.14,434.4-176.32A288.34,288.34,0,0,0,1920,136.86Z"/>
            <path class="cls-2"
                  d="M1588.94,0q-2,4.6-4.15,9.14c-62.74,130.68-231.62,201.59-394.16,234.14s-334.13,39.14-487,96c-191.1,71.15-334,216-419,377C223.31,832.38,185.06,963,77.54,1052a340.36,340.36,0,0,1-39.24,28H0V0Z"/>
            <path class="cls-16"
                  d="M1588.94,0q-2,4.6-4.15,9.14c-62.74,130.68-231.62,201.59-394.16,234.14s-334.13,39.14-487,96c-191.1,71.15-334,216-419,377C223.31,832.38,185.06,963,77.54,1052a340.36,340.36,0,0,1-39.24,28H0V0Z"/>
            <path class="cls-17"
                  d="M1588.94,0q-2,4.6-4.15,9.14c-62.74,130.68-231.62,201.59-394.16,234.14s-334.13,39.14-487,96c-191.1,71.15-334,216-419,377C223.31,832.38,185.06,963,77.54,1052a340.36,340.36,0,0,1-39.24,28H26.24a352.26,352.26,0,0,0,50-34.43C183.78,956.56,222,826,283.31,709.86c85.05-161,227.92-305.83,419-377,152.85-56.9,324.4-63.46,487-96S1520.77,133.38,1583.46,2.72c.44-.91.87-1.81,1.28-2.72Z"/>
            <path class="cls-2"
                  d="M861.06,39.31C847.41,148.39,739.17,232.05,625.89,285.88S386,375.69,286.16,446C161.33,533.78,91.37,668,68.76,803.82,53.22,897.09,56.73,996.41,7.22,1080H0V121.37L301.8,0H861.87A194.49,194.49,0,0,1,861.06,39.31Z"/>
            <path class="cls-18"
                  d="M861.06,39.31C847.41,148.39,739.17,232.05,625.89,285.88S386,375.69,286.16,446C161.33,533.78,91.37,668,68.76,803.82,53.22,897.09,56.73,996.41,7.22,1080H0V121.37L301.8,0H861.87A194.49,194.49,0,0,1,861.06,39.31Z"/>
            <path class="cls-19"
                  d="M861.06,39.31C847.41,148.39,739.17,232.05,625.89,285.88S386,375.69,286.16,446C161.33,533.78,91.37,668,68.76,803.82,53.22,897.09,56.73,996.41,7.22,1080H3.38C54.32,996,50.64,895.71,66.3,801.6c22.58-135.82,92.57-270.05,217.37-357.89,99.84-70.27,226.46-106.25,339.74-160.08S845,146.17,858.57,37.09a193.61,193.61,0,0,0,1-37.09h2.3A194.49,194.49,0,0,1,861.06,39.31Z"/>
            <path class="cls-2"
                  d="M845.44,0C799.1,52,731.85,93.81,663.07,124.85c-114.64,51.71-242.16,85.38-343.79,153.81-127,85.52-200.45,218.44-226.53,353.81C73.93,730.08,75.88,834.73,16,919.71A234.83,234.83,0,0,1,0,939.82V0Z"/>
            <path class="cls-20"
                  d="M845.44,0C799.1,52,731.85,93.81,663.07,124.85c-114.64,51.71-242.16,85.38-343.79,153.81-127,85.52-200.45,218.44-226.53,353.81C73.93,730.08,75.88,834.73,16,919.71A234.83,234.83,0,0,1,0,939.82V0Z"/>
            <path class="cls-21"
                  d="M845.44,0C799.1,52,731.85,93.81,663.07,124.85c-114.64,51.71-242.16,85.38-343.79,153.81-127,85.52-200.45,218.44-226.53,353.81C73.93,730.08,75.88,834.73,16,919.71A234.83,234.83,0,0,1,0,939.82v-5q7.22-8.38,13.54-17.36c59.93-85,58-189.65,76.8-287.26,26.09-135.35,99.48-268.27,226.54-353.81C418.51,208,546,174.29,660.66,122.56,728.45,92,794.73,50.93,841,0Z"/>
            <path class="cls-2"
                  d="M618.27,0C571.93,52,504.68,93.81,435.89,124.85,321.25,176.56,193.74,210.23,92.11,278.66A506.54,506.54,0,0,0,0,358.3V0Z"/>
            <path class="cls-22"
                  d="M618.27,0C571.93,52,504.68,93.81,435.89,124.85,321.25,176.56,193.74,210.23,92.11,278.66A506.54,506.54,0,0,0,0,358.3V0Z"/>
            <path class="cls-23"
                  d="M618.27,0C571.93,52,504.68,93.81,435.89,124.85,321.25,176.56,193.74,210.23,92.11,278.66A506.54,506.54,0,0,0,0,358.3v-4.9a506.35,506.35,0,0,1,89.7-77C191.33,208,318.85,174.29,433.49,122.56,501.27,92,567.55,50.93,613.84,0Z"/>
        </g>
    </g>
</svg>