<?xml version="1.0" encoding="utf-8"?>
<!-- Generator: Adobe Illustrator 24.1.2, SVG Export Plug-In . SVG Version: 6.00 Build 0)  -->
<svg version="1.1" id="Layer_1" xmlns="http://www.w3.org/2000/svg" x="0px" y="0px"
	 viewBox="0 0 48 48" style="enable-background:new 0 0 48 48;" xml:space="preserve">
<style type="text/css">
	.st0{fill:#FFFFFF;}
</style>
	<path d="M37.5,48H10.5C4.7,48,0,43.3,0,37.5V10.5C0,4.7,4.7,0,10.5,0h26.9C43.3,0,48,4.7,48,10.5v26.9C48,43.3,43.3,48,37.5,48z"/>
	<g>
	<path class="st0" d="M30,35.2c-0.6-0.9-1.3-1.9-2.1-2.9c-0.8-1-1.6-2-2.5-3s-1.8-1.9-2.7-2.7c-0.9-0.9-1.9-1.6-2.8-2.2v10.9h-4.4
		V11h4.4v10c0.8-0.8,1.6-1.6,2.4-2.5s1.7-1.8,2.5-2.7c0.8-0.9,1.6-1.8,2.4-2.6c0.7-0.8,1.4-1.6,2-2.3h5.3c-0.8,0.9-1.6,1.8-2.4,2.8
		c-0.9,1-1.8,1.9-2.7,2.9c-0.9,1-1.8,1.9-2.7,2.9c-0.9,1-1.8,1.9-2.7,2.7c1,0.7,2,1.6,3,2.6c1,1,2,2.1,3,3.2c1,1.1,1.9,2.3,2.8,3.5
		c0.9,1.2,1.7,2.4,2.5,3.7H30z"/>
</g>
</svg>
